<svg width="565" height="337" viewBox="0 0 565 337" fill="none" xmlns="http://www.w3.org/2000/svg">
<path d="M565 313.363H0V314.448H565V313.363Z" fill="#3F3D56"/>
<path d="M320.364 89.0806H352.679V42.0637L320.364 42.0637V89.0806Z" fill="#2F2E41"/>
<path d="M346.434 63.7522C346.434 63.7522 345.218 86.9648 355.969 87.9167C363.491 88.5827 341.3 109.152 341.3 109.152L322.23 82.7909C322.23 82.7909 336.524 84.2525 327.364 68.1457L346.434 63.7522Z" fill="#FFB8B8"/>
<path opacity="0.1" d="M322.229 82.7933L328.255 91.1256L341.301 109.152C341.301 109.152 352.195 99.051 356.129 92.7801C357.607 90.4204 358.107 88.6031 356.672 88.0661C356.666 88.0618 356.658 88.0598 356.651 88.0606C356.445 87.9836 356.229 87.9361 356.009 87.9196C355.997 87.9167 355.984 87.9149 355.971 87.9142C355.345 87.8616 354.729 87.7229 354.14 87.5019C345.36 84.2254 346.435 63.7526 346.435 63.7526L327.363 68.1466C333.476 78.8929 329.146 81.8222 325.587 82.5763C324.806 82.7389 324.01 82.8225 323.212 82.8258C322.609 82.8312 322.229 82.7933 322.229 82.7933Z" fill="black"/>
<path d="M316.623 44.6876C320.115 55.0081 325.468 64.4116 336.38 64.4116C347.291 64.4116 355.521 55.5635 356.136 44.6876C356.922 30.7902 347.543 24.9059 336.38 24.9635C323.192 25.0315 312.48 32.4396 316.623 44.6876Z" fill="#2F2E41"/>
<path d="M363.303 212.401L358.169 248.281C358.169 248.281 362.57 270.249 360.37 285.626L358.169 301.736H347.901L344.967 284.894C344.967 284.894 342.033 267.32 342.033 259.265C342.033 259.265 333.965 222.652 339.099 215.33L363.303 212.401Z" fill="#FFB8B8"/>
<path d="M300.959 210.204L306.094 248.281C306.094 248.281 301.693 270.249 303.893 285.626L306.094 301.736H316.362L319.296 284.894C319.296 284.894 322.23 267.32 322.23 259.265C322.23 259.265 330.298 220.455 325.164 213.133L300.959 210.204Z" fill="#FFB8B8"/>
<path d="M311.228 299.539C311.228 299.539 305.36 297.342 304.627 300.272C303.893 303.201 302.426 318.578 302.426 318.578C302.426 318.578 298.025 325.168 295.092 325.901C292.158 326.633 285.557 336.152 293.625 336.884C301.693 337.617 309.761 334.688 309.761 333.223C309.761 331.759 312.695 331.026 314.162 331.026C315.629 331.026 320.763 328.83 320.029 326.633C319.296 324.436 317.095 298.807 317.095 298.807L311.228 299.539Z" fill="#2F2E41"/>
<path d="M353.035 299.539C353.035 299.539 358.903 297.342 359.636 300.272C360.37 303.201 361.837 318.578 361.837 318.578C361.837 318.578 366.237 325.168 369.171 325.901C372.105 326.633 378.706 336.152 370.638 336.884C362.57 337.617 354.502 334.688 354.502 333.223C354.502 331.759 351.568 331.026 350.101 331.026C348.634 331.026 343.5 328.83 344.234 326.633C344.967 324.436 347.167 298.807 347.167 298.807L353.035 299.539Z" fill="#2F2E41"/>
<path d="M335.432 72.3453C343.831 72.3453 350.64 65.5475 350.64 57.1619C350.64 48.7763 343.831 41.9784 335.432 41.9784C327.033 41.9784 320.224 48.7763 320.224 57.1619C320.224 65.5475 327.033 72.3453 335.432 72.3453Z" fill="#FFB8B8"/>
<path d="M278.222 140.637C278.222 140.637 309.025 153.819 311.959 139.904C313.763 131.209 314.989 122.403 315.627 113.546C315.63 113.543 315.634 113.541 315.638 113.54C316.067 113.28 331.243 103.982 328.255 91.1256C327.559 88.3407 326.252 85.7448 324.429 83.5256C324.429 83.5256 323.978 83.2327 323.212 82.8258C322.314 82.3469 321.387 81.9248 320.436 81.5619C315.257 79.5927 306.645 78.4807 304.629 91.5758C301.695 110.616 301.695 131.122 301.695 131.122C301.695 131.122 292.893 136.248 281.156 131.122C269.42 125.995 257.683 128.925 256.95 135.516C256.216 142.101 278.222 140.637 278.222 140.637Z" fill="#FFB8B8"/>
<path d="M355.971 87.9142L356.129 92.7801L357.878 147.634L358.172 156.748L383.84 185.309C383.84 185.309 388.975 200.682 399.978 202.879C410.981 205.076 392.642 181.647 392.642 181.647L367.702 145.031L367.664 143.799C367.383 133.54 368.24 123.281 370.218 113.209C370.95 109.461 371.091 105.621 370.636 101.828C369.615 93.6589 362.883 90.1166 358.905 88.7225C358.174 88.4607 357.429 88.2416 356.672 88.0661C356.666 88.0618 356.658 88.0599 356.65 88.0607C356.319 87.9793 356.096 87.9359 356.009 87.9196C355.997 87.9167 355.984 87.9149 355.971 87.9142Z" fill="#FFB8B8"/>
<path d="M314.893 140.637V143.566C325.587 156.612 349.255 150.45 357.878 147.634C359.905 146.973 361.101 146.495 361.101 146.495C360.662 145.578 360.412 144.582 360.367 143.566V136.98C360.367 134.783 359.639 136.248 358.905 135.516C358.172 134.783 361.101 130.389 361.101 130.389C368.436 125.995 364.035 113.546 364.035 113.546L358.905 102.561V88.7224C358.174 88.4607 357.429 88.2415 356.672 88.0661C356.666 88.0617 356.658 88.0598 356.65 88.0606C356.444 87.9836 356.229 87.9361 356.009 87.9196C355.997 87.9167 355.984 87.9149 355.971 87.9142C355.345 87.8616 354.729 87.7229 354.14 87.5019C352.765 90.3336 349.777 94.0603 343.501 94.5052C335.986 95.0422 328.863 86.954 325.587 82.5763C324.806 82.7389 324.01 82.8225 323.212 82.8258C322.314 82.3469 321.387 81.9248 320.436 81.5619L323.696 95.2375C326.581 102.436 316.002 113.166 315.638 113.54C315.634 113.541 315.63 113.543 315.627 113.546V121.601L316.36 130.389L317.094 132.586L315.627 134.783L316.36 136.98L315.627 138.445C314.893 139.904 314.893 139.177 314.893 140.637Z" fill="#D0CDE1"/>
<path d="M359.636 145.765L361.837 145.033C361.837 145.033 388.241 210.936 370.638 213.865C353.035 216.794 339.833 221.92 336.899 216.794C333.965 211.668 335.432 193.362 335.432 193.362L332.498 192.63C332.498 192.63 337.633 219.723 327.364 217.526C317.096 215.33 288.491 211.668 288.491 208.739C288.491 205.81 314.895 142.551 314.895 142.551C314.895 142.551 325.897 149.426 359.636 145.765Z" fill="#2F2E41"/>
<path d="M336.38 29.1159C340.687 29.1159 344.178 25.6301 344.178 21.3301C344.178 17.0301 340.687 13.5443 336.38 13.5443C332.073 13.5443 328.581 17.0301 328.581 21.3301C328.581 25.6301 332.073 29.1159 336.38 29.1159Z" fill="#2F2E41"/>
<path d="M345.738 17.1777C345.738 15.2476 345.02 13.3864 343.723 11.9551C342.426 10.5237 340.643 9.62426 338.719 9.43118C338.976 9.40574 339.236 9.39187 339.499 9.39187C340.523 9.39187 341.537 9.59326 342.483 9.98453C343.43 10.3758 344.289 10.9493 345.014 11.6723C345.738 12.3953 346.312 13.2536 346.704 14.1982C347.096 15.1428 347.298 16.1552 347.298 17.1777C347.298 18.2001 347.096 19.2126 346.704 20.1572C346.312 21.1018 345.738 21.9601 345.014 22.6831C344.289 23.4061 343.43 23.9796 342.483 24.3708C341.537 24.7621 340.523 24.9635 339.499 24.9635C339.236 24.9635 338.976 24.9496 338.719 24.9242C340.643 24.7311 342.426 23.8317 343.723 22.4003C345.02 20.969 345.738 19.1077 345.738 17.1777Z" fill="#2F2E41"/>
<path d="M342.659 37.6108C342.659 37.6108 342.822 36.7058 349.191 39.0902C355.56 41.4746 359.377 59.07 356.193 69.4022C354.91 73.5661 355.954 76.5682 357.657 78.6687C364.051 86.5512 361.534 98.3905 352.221 102.444C351.958 102.558 351.69 102.671 351.416 102.783L347.436 105.168C347.436 105.168 352.51 98.5019 349.971 89.9753C347.766 82.7103 347.493 74.9972 349.181 67.5952C349.472 66.3466 349.803 65.0594 350.179 63.7459C353.363 52.6189 351.814 53.9039 340.669 42.7769C340.669 42.7769 334.3 47.5456 328.728 49.93C323.155 52.3143 318.379 54.6987 322.359 62.6465C326.34 70.5943 335.893 77.7475 329.524 88.0797C323.155 98.4119 322.359 94.438 323.155 98.4119L323.951 102.386L319.175 97.6171L322.359 103.975C322.359 103.975 312.01 103.975 308.826 96.0275L307.233 97.6171C307.233 97.6171 300.865 86.4901 312.806 76.1579C312.806 76.1579 316.786 73.7736 311.214 65.8257C305.641 57.8779 309.921 40.79 317.086 37.6109C324.251 34.4317 342.659 37.6108 342.659 37.6108Z" fill="#2F2E41"/>
<path d="M264.509 72.5605V108.19C264.508 108.519 264.376 108.835 264.143 109.067C263.91 109.3 263.594 109.431 263.264 109.432H262.379V295.038C262.378 300.174 260.335 305.099 256.697 308.731C253.059 312.363 248.125 314.403 242.981 314.404H126.816C124.269 314.403 121.747 313.902 119.394 312.929C117.041 311.956 114.903 310.529 113.102 308.731C111.301 306.932 109.873 304.797 108.899 302.448C107.924 300.099 107.423 297.58 107.424 295.038V115.942H106.782C106.55 115.942 106.326 115.85 106.161 115.687C105.996 115.523 105.903 115.301 105.902 115.068V94.7909C105.902 94.6755 105.925 94.5612 105.969 94.4546C106.013 94.348 106.078 94.2511 106.16 94.1694C106.242 94.0878 106.339 94.0231 106.445 93.979C106.552 93.9348 106.667 93.9121 106.782 93.9121H107.424V86.2742H106.777C106.533 86.2732 106.299 86.1756 106.127 86.0027C105.955 85.8298 105.858 85.5958 105.859 85.352V65.3512C105.859 65.1082 105.956 64.8754 106.128 64.7036C106.3 64.5318 106.534 64.435 106.777 64.4344H107.424V54.0082H106.766C106.659 54.0083 106.553 53.9874 106.454 53.9465C106.355 53.9057 106.265 53.8457 106.189 53.7701C106.114 53.6946 106.054 53.6048 106.013 53.506C105.972 53.4072 105.951 53.3013 105.951 53.1945V42.28C105.951 42.0635 106.036 41.8557 106.189 41.7022C106.342 41.5486 106.549 41.4618 106.766 41.4609H107.424V19.3607C107.424 14.226 109.467 9.30163 113.104 5.67084C116.74 2.04005 121.673 0.000209909 126.816 2.28884e-05H242.981C248.125 -3.24808e-07 253.058 2.0396 256.695 5.67028C260.333 9.30096 262.377 14.2254 262.379 19.3607V71.3183H263.264C263.594 71.3192 263.91 71.4503 264.143 71.6831C264.376 71.9159 264.508 72.2314 264.509 72.5605Z" fill="#3F3D56"/>
<path d="M190.495 9.93086H171.619C170.856 9.93086 170.238 10.5482 170.238 11.3098V12.9386C170.238 13.7001 170.856 14.3175 171.619 14.3175H190.495C191.258 14.3175 191.876 13.7001 191.876 12.9386V11.3098C191.876 10.5482 191.258 9.93086 190.495 9.93086Z" fill="#E6E8EC"/>
<path d="M197.64 14.6123C199.017 14.6123 200.132 13.4983 200.132 12.1242C200.132 10.75 199.017 9.63605 197.64 9.63605C196.264 9.63605 195.148 10.75 195.148 12.1242C195.148 13.4983 196.264 14.6123 197.64 14.6123Z" fill="#E6E8EC"/>
<path d="M253.09 23.1904V296.643C253.089 299.901 251.791 303.025 249.483 305.328C247.176 307.631 244.046 308.925 240.783 308.925H129.584C127.968 308.928 126.367 308.612 124.873 307.996C123.379 307.38 122.021 306.475 120.878 305.334C119.734 304.193 118.828 302.838 118.21 301.347C117.592 299.856 117.275 298.257 117.277 296.643V23.1904C117.277 21.5769 117.596 19.9791 118.214 18.4883C118.833 16.9976 119.739 15.6431 120.882 14.5021C122.025 13.3611 123.381 12.4561 124.875 11.8387C126.368 11.2212 127.968 10.9034 129.584 10.9035H146.228V13.0354C146.228 15.7186 147.295 18.2919 149.196 20.1892C151.096 22.0865 153.674 23.1524 156.361 23.1524H212.914C215.602 23.1524 218.179 22.0865 220.08 20.1892C221.98 18.2919 223.048 15.7186 223.048 13.0354V10.9035H240.783C242.399 10.903 244 11.2204 245.493 11.8377C246.987 12.455 248.344 13.36 249.487 14.5011C250.629 15.6421 251.536 16.9969 252.154 18.4878C252.773 19.9788 253.091 21.5767 253.09 23.1904Z" fill="#FF9500"/>
<path opacity="0.2" d="M248.765 100.547H122.706V161.846H248.765V100.547Z" fill="black"/>
<path d="M537.649 152.52H411.589V213.819H537.649V152.52Z" fill="#F2F2F2"/>
<path d="M248.765 193.46H122.706V254.759H248.765V193.46Z" fill="#3F3D56"/>
<path d="M235.724 55.131C241.726 55.131 246.592 50.2735 246.592 44.2816C246.592 38.2897 241.726 33.4322 235.724 33.4322C229.723 33.4322 224.857 38.2897 224.857 44.2816C224.857 50.2735 229.723 55.131 235.724 55.131Z" fill="white"/>
<path d="M240.615 43.9329H236.073V39.3995H235.375V43.9329H230.834V44.6305H235.375V49.1639H236.073V44.6305H240.615V43.9329Z" fill="#3F3D56"/>
<path d="M523.521 144.383H397.462V205.682H523.521V144.383Z" fill="#3F3D56"/>
<path d="M453.736 185.54C457.036 197.719 468.339 205.261 468.339 205.261C468.339 205.261 474.291 193.059 470.991 180.88C467.691 168.702 456.389 161.159 456.389 161.159C456.389 161.159 450.436 173.362 453.736 185.54Z" fill="white"/>
<path d="M458.585 182.923C467.64 191.723 468.746 205.251 468.746 205.251C468.746 205.251 455.171 204.511 446.116 195.711C437.061 186.911 435.955 173.383 435.955 173.383C435.955 173.383 449.53 174.123 458.585 182.923Z" fill="#FF9500"/>
<path d="M173.46 235.551C176.76 247.729 188.063 255.272 188.063 255.272C188.063 255.272 194.015 243.069 190.716 230.891C187.416 218.712 176.113 211.17 176.113 211.17C176.113 211.17 170.16 223.373 173.46 235.551Z" fill="white"/>
<path d="M178.309 232.934C187.364 241.734 188.47 255.262 188.47 255.262C188.47 255.262 174.895 254.522 165.84 245.722C156.785 236.921 155.679 223.393 155.679 223.393C155.679 223.393 169.254 224.133 178.309 232.934Z" fill="#FF9500"/>
<path d="M203.48 235.551C200.18 247.729 188.877 255.272 188.877 255.272C188.877 255.272 182.924 243.069 186.224 230.891C189.524 218.712 200.827 211.17 200.827 211.17C200.827 211.17 206.78 223.373 203.48 235.551Z" fill="white"/>
<path d="M198.631 232.934C189.576 241.734 188.47 255.262 188.47 255.262C188.47 255.262 202.045 254.522 211.1 245.722C220.155 236.921 221.261 223.393 221.261 223.393C221.261 223.393 207.686 224.133 198.631 232.934Z" fill="#FF9500"/>
<path d="M275.933 90.7824H149.874V152.081H275.933V90.7824Z" fill="#3F3D56"/>
<path d="M213.527 111.8H212.44V152.165H213.527V111.8Z" fill="white"/>
<path d="M212.984 118.05C216.141 118.05 218.701 115.495 218.701 112.342C218.701 109.189 216.141 106.634 212.984 106.634C209.826 106.634 207.266 109.189 207.266 112.342C207.266 115.495 209.826 118.05 212.984 118.05Z" fill="#FF9500"/>
<path d="M212.984 136.678C212.984 136.678 212.167 119.139 195.422 121.178L212.984 136.678Z" fill="white"/>
</svg>
