<svg width="244" height="273" viewBox="0 0 244 273" fill="none" xmlns="http://www.w3.org/2000/svg">
<path d="M244 0H0V273H244V0Z" fill="#3F3D56"/>
<path d="M208.1 73.978H36.5085V80.8316H208.1V73.978Z" fill="#FF9500"/>
<path d="M208.1 119.097H36.5085V125.951H208.1V119.097Z" fill="#FF9500"/>
<path d="M208.1 131.091H36.5085V137.945H208.1V131.091Z" fill="#FF9500"/>
<path opacity="0.6" d="M208.1 107.104H153.945V113.957H208.1V107.104Z" fill="#FF9500"/>
<path d="M150.903 159.076H96.748V165.93H150.903V159.076Z" fill="#FF9500"/>
<g opacity="0.5">
<path opacity="0.5" d="M205.662 262.585C219.136 262.585 230.059 252.333 230.059 239.686C230.059 227.04 219.136 216.787 205.662 216.787C192.189 216.787 181.266 227.04 181.266 239.686C181.266 252.333 192.189 262.585 205.662 262.585Z" fill="url(#paint0_linear)"/>
</g>
<path d="M205.662 261.238C218.343 261.238 228.624 251.589 228.624 239.686C228.624 227.784 218.343 218.134 205.662 218.134C192.981 218.134 182.701 227.784 182.701 239.686C182.701 251.589 192.981 261.238 205.662 261.238Z" fill="#69F0AE"/>
<path d="M196.035 236.431L204.646 243.839L216.844 227.002L221.149 230.37L204.646 250.575L192.448 237.778L196.035 236.431Z" fill="white"/>
<defs>
<linearGradient id="paint0_linear" x1="205.662" y1="262.585" x2="205.662" y2="216.787" gradientUnits="userSpaceOnUse">
<stop stop-color="#808080" stop-opacity="0.25"/>
<stop offset="0.53514" stop-color="#808080" stop-opacity="0.12"/>
<stop offset="1" stop-color="#808080" stop-opacity="0.1"/>
</linearGradient>
</defs>
</svg>
