<svg width="506" height="307" viewBox="0 0 506 307" fill="none" xmlns="http://www.w3.org/2000/svg">
<g clip-path="url(#clip0)">
<path d="M327.088 299.165C466.095 299.165 578.782 294.59 578.782 288.947C578.782 283.303 466.095 278.729 327.088 278.729C188.082 278.729 75.3943 283.303 75.3943 288.947C75.3943 294.59 188.082 299.165 327.088 299.165Z" fill="#E6E6E6"/>
<path d="M260.227 297.971C326.13 297.971 379.556 244.47 379.556 178.473C379.556 112.477 326.13 58.9756 260.227 58.9756C194.323 58.9756 140.898 112.477 140.898 178.473C140.898 244.47 194.323 297.971 260.227 297.971Z" fill="#3F3D56"/>
<path d="M260.227 288.079C320.675 288.079 369.678 239.007 369.678 178.473C369.678 117.94 320.675 68.8678 260.227 68.8678C199.779 68.8678 150.776 117.94 150.776 178.473C150.776 239.007 199.779 288.079 260.227 288.079Z" fill="white"/>
<path d="M259.832 193.509C267.906 193.509 274.452 186.955 274.452 178.869C274.452 170.783 267.906 164.229 259.832 164.229C251.757 164.229 245.212 170.783 245.212 178.869C245.212 186.955 251.757 193.509 259.832 193.509Z" fill="#3F3D56"/>
<path d="M262.993 74.4074H256.671V86.278H262.993V74.4074Z" fill="#3F3D56"/>
<path d="M262.993 271.46H256.671V283.331H262.993V271.46Z" fill="#3F3D56"/>
<path d="M167.372 182.034V175.703H155.518V182.034H167.372Z" fill="#3F3D56"/>
<path d="M364.146 182.034V175.703H352.292V182.034H364.146Z" fill="#3F3D56"/>
<path d="M255.617 185.225L261.02 172.853L328.719 210.4L255.617 185.225Z" fill="#3F3D56"/>
<path d="M275.637 30.0904H244.817V65.7023H275.637V30.0904Z" fill="#3F3D56"/>
<path d="M260.227 39.9826C279.867 39.9826 295.789 35.5537 295.789 30.0904C295.789 24.6271 279.867 20.1982 260.227 20.1982C240.587 20.1982 224.665 24.6271 224.665 30.0904C224.665 35.5537 240.587 39.9826 260.227 39.9826Z" fill="#3F3D56"/>
<path d="M326.806 199.643L324.83 202.412C324.83 202.412 315.743 213.096 315.347 207.952C314.952 202.808 322.065 199.247 322.065 199.247L326.016 196.873L326.806 199.643Z" fill="#FFB8B8"/>
<path d="M383.051 208.988L384.705 211.961C384.705 211.961 390.458 224.759 385.647 222.915C380.835 221.071 380.665 213.11 380.665 213.11L380.213 208.517L383.051 208.988Z" fill="#FFB8B8"/>
<path d="M374.156 156.262C380.801 156.262 386.188 150.868 386.188 144.214C386.188 137.559 380.801 132.165 374.156 132.165C367.511 132.165 362.125 137.559 362.125 144.214C362.125 150.868 367.511 156.262 374.156 156.262Z" fill="#2F2E41"/>
<path d="M373.036 243.168L374.617 253.456V256.622H383.705V252.665C383.705 252.665 384.1 245.542 382.52 243.564C380.939 241.586 373.036 243.168 373.036 243.168Z" fill="#FFB8B8"/>
<path d="M356.836 243.168L358.416 253.456V256.622H367.504V252.665C367.504 252.665 367.9 245.542 366.319 243.564C364.739 241.586 356.836 243.168 356.836 243.168Z" fill="#FFB8B8"/>
<path d="M362.952 160.53C362.952 160.53 359.456 162.375 361.844 166.572C364.231 170.768 378.239 214.186 378.239 214.186L386.32 211.889L379.193 184.43L375.113 167.172L362.952 160.53Z" fill="#FF9500"/>
<path d="M372.839 156.71C377.858 156.71 381.927 152.636 381.927 147.61C381.927 142.583 377.858 138.509 372.839 138.509C367.82 138.509 363.751 142.583 363.751 147.61C363.751 152.636 367.82 156.71 372.839 156.71Z" fill="#FFB8B8"/>
<path d="M376.988 148.995L375.802 167.592L367.505 161.657C367.505 161.657 370.271 150.577 369.48 149.786L376.988 148.995Z" fill="#FFB8B8"/>
<path d="M376.987 166.009L368.048 159.38C368.048 159.38 363.948 157.7 362.763 159.678C361.577 161.657 355.65 190.937 358.811 196.477C358.811 196.477 375.802 200.038 379.358 198.06L380.939 187.772C380.939 187.772 382.914 181.441 379.753 177.484L376.987 166.009Z" fill="#FF9500"/>
<path d="M365.134 160.074C365.134 160.074 361.973 157.7 359.207 161.657C356.441 165.613 323.25 196.873 323.25 196.873L328.782 203.204L350.514 185.002L364.343 173.923L365.134 160.074Z" fill="#FF9500"/>
<path d="M379.556 197.862C379.556 197.862 359.997 194.103 358.021 196.873L357.626 201.225C357.626 201.225 353.28 209.535 355.65 222.988C358.021 236.442 356.441 244.751 356.441 244.751C356.441 244.751 367.109 243.564 375.012 244.751C382.914 245.938 384.1 244.751 384.1 244.751L379.556 197.862Z" fill="#2F2E41"/>
<path d="M384.495 255.039L373.036 255.435L376.988 285.111C376.988 285.111 373.827 297.773 377.383 298.565C379.855 299.064 382.368 299.329 384.89 299.356C384.89 299.356 388.446 302.917 392.398 302.521C395.022 302.186 397.565 301.382 399.905 300.147C399.905 300.147 400.695 297.773 397.93 296.982C395.164 296.19 387.656 293.816 386.076 285.507L384.495 255.039Z" fill="#2F2E41"/>
<path d="M368.295 255.039L356.836 255.435L360.787 285.111C360.787 285.111 357.626 297.773 361.182 298.565C363.654 299.064 366.168 299.329 368.69 299.356C368.69 299.356 372.246 302.917 376.197 302.521C378.821 302.186 381.364 301.382 383.705 300.147C383.705 300.147 384.495 297.773 381.729 296.982C378.963 296.19 371.456 293.816 369.875 285.507L368.295 255.039Z" fill="#2F2E41"/>
<path d="M378.365 136.518C381.114 136.518 383.343 134.286 383.343 131.533C383.343 128.779 381.114 126.547 378.365 126.547C375.615 126.547 373.386 128.779 373.386 131.533C373.386 134.286 375.615 136.518 378.365 136.518Z" fill="#2F2E41"/>
<path d="M385.003 128.832C385.003 127.6 384.547 126.411 383.723 125.496C382.9 124.58 381.767 124.002 380.543 123.874C380.715 123.856 380.888 123.847 381.062 123.847C382.382 123.847 383.648 124.372 384.582 125.307C385.516 126.242 386.04 127.51 386.04 128.832C386.04 130.154 385.516 131.423 384.582 132.358C383.648 133.292 382.382 133.818 381.062 133.818C380.888 133.818 380.715 133.809 380.543 133.791C381.767 133.662 382.9 133.085 383.723 132.169C384.547 131.253 385.003 130.065 385.003 128.832Z" fill="#2F2E41"/>
<path d="M372.757 146.645C377.339 146.645 381.054 144.413 381.054 141.659C381.054 138.906 377.339 136.673 372.757 136.673C368.174 136.673 364.459 138.906 364.459 141.659C364.459 144.413 368.174 146.645 372.757 146.645Z" fill="#2F2E41"/>
</g>
<defs>
<clipPath id="clip0">
<rect width="506" height="307" fill="white"/>
</clipPath>
</defs>
</svg>
