<svg width="508" height="366" viewBox="0 0 508 366" fill="none" xmlns="http://www.w3.org/2000/svg">
<g clip-path="url(#clip0)">
<path d="M41.7486 153.796C41.7486 160.946 37.7924 166.284 31.9683 166.284C30.0078 166.284 28.1707 165.217 27.5407 164.014C27.5407 164.014 26.4878 168.21 26.2631 169.026C25.8514 170.386 25.2492 171.682 24.4744 172.874C24.1264 172.698 23.2056 172.31 22.3113 171.944C22.2485 170.607 22.3565 169.268 22.6329 167.959C22.9765 166.478 24.9591 158.023 24.9591 158.023C24.5631 157.116 24.3648 156.134 24.3775 155.144C24.3775 152.447 25.9327 150.428 27.8711 150.428C29.5232 150.428 30.3162 151.671 30.3162 153.161C30.3162 154.827 29.2545 157.318 28.7126 159.628C28.6043 160.055 28.5977 160.501 28.6933 160.931C28.7889 161.361 28.984 161.763 29.263 162.104C29.542 162.445 29.897 162.715 30.2995 162.894C30.702 163.072 31.1408 163.154 31.5806 163.132C35.0081 163.132 37.3211 158.702 37.3211 153.447C37.3211 149.449 34.6469 146.465 29.7831 146.465C24.2894 146.465 20.8575 150.591 20.8575 155.193C20.8034 156.49 21.2302 157.762 22.0558 158.764C22.1999 158.885 22.3024 159.048 22.349 159.231C22.3956 159.414 22.384 159.606 22.3157 159.782C22.2276 160.117 22.0338 160.919 21.9412 161.245C21.9262 161.343 21.8881 161.436 21.83 161.516C21.772 161.597 21.6956 161.662 21.6073 161.707C21.5191 161.751 21.4214 161.775 21.3224 161.774C21.2234 161.774 21.1259 161.749 21.0381 161.704C18.5049 160.659 17.3242 157.877 17.3242 154.739C17.3242 149.564 21.6681 143.357 30.2766 143.357C37.1933 143.357 41.7486 148.391 41.7486 153.796Z" fill="#FF9500"/>
<path d="M480.679 46.572H468.749C466.556 46.5606 464.447 47.4177 462.883 48.9562C461.319 50.4948 460.426 52.5899 460.4 54.7844V66.5144C460.427 68.7084 461.319 70.803 462.883 72.3408C464.447 73.8786 466.556 74.7348 468.749 74.7224H480.679C482.872 74.7348 484.981 73.8786 486.545 72.3408C488.109 70.803 489.002 68.7084 489.028 66.5144V54.7844C489.002 52.5899 488.109 50.4948 486.545 48.9562C484.981 47.4177 482.872 46.5606 480.679 46.572ZM474.714 65.3419C473.79 65.3259 472.891 65.0372 472.131 64.512C471.37 63.9868 470.782 63.2485 470.439 62.3897C470.096 61.531 470.015 60.5901 470.205 59.6851C470.394 58.7802 470.847 57.9515 471.506 57.3031C472.165 56.6548 473.001 56.2157 473.908 56.0409C474.816 55.8661 475.755 55.9634 476.607 56.3206C477.459 56.6779 478.187 57.2791 478.699 58.0488C479.211 58.8186 479.485 59.7225 479.485 60.6472C479.473 61.9022 478.964 63.1012 478.069 63.9813C477.175 64.8613 475.968 65.3506 474.714 65.3419L474.714 65.3419ZM482.468 54.7844C482.122 54.7783 481.785 54.6701 481.5 54.4731C481.215 54.2762 480.994 53.9994 480.866 53.6775C480.737 53.3555 480.707 53.0028 480.778 52.6636C480.849 52.3244 481.019 52.0138 481.266 51.7709C481.513 51.5279 481.827 51.3634 482.167 51.298C482.507 51.2326 482.859 51.2692 483.178 51.4033C483.498 51.5373 483.77 51.7628 483.962 52.0514C484.154 52.34 484.257 52.6789 484.257 53.0255C484.255 53.2587 484.207 53.4892 484.117 53.7039C484.026 53.9187 483.894 54.1133 483.727 54.2767C483.561 54.4402 483.364 54.5691 483.148 54.6562C482.932 54.7434 482.701 54.7869 482.468 54.7844Z" fill="#FF9500"/>
<path d="M268.695 342.071H134.514C131.493 342.081 128.531 341.227 125.977 339.612C123.929 338.336 122.237 336.563 121.056 334.458C119.875 332.354 119.243 329.985 119.22 327.571V14.5098C119.22 6.5091 126.081 3.36314e-06 134.514 3.36314e-06H166.049V2.87971C166.049 9.02549 171.336 14.0255 177.835 14.0255H222.291C224.792 14.0394 227.237 13.2777 229.288 11.8451C230.743 10.8405 231.936 9.50277 232.769 7.94329C233.602 6.38382 234.051 4.64776 234.077 2.87971V0H268.695C277.128 0 283.988 6.5091 283.988 14.5098V327.571C283.976 329.698 283.486 331.795 282.553 333.706C281.621 335.617 280.271 337.294 278.603 338.612C275.792 340.864 272.295 342.085 268.695 342.071ZM134.514 0.881627C126.567 0.881627 120.102 6.99533 120.102 14.5098V327.571C120.125 329.837 120.719 332.06 121.829 334.035C122.939 336.009 124.528 337.672 126.451 338.869C128.864 340.394 131.661 341.199 134.514 341.19H268.695C272.094 341.203 275.395 340.052 278.049 337.927C279.615 336.691 280.882 335.119 281.758 333.326C282.633 331.533 283.095 329.567 283.107 327.571V14.5098C283.107 6.99533 276.642 0.881631 268.695 0.881631H234.958V2.87971C234.932 4.79021 234.449 6.66657 233.549 8.35222C232.65 10.0379 231.361 11.4839 229.79 12.5696C227.591 14.1051 224.972 14.9216 222.291 14.9072H177.835C170.85 14.9072 165.168 9.51171 165.168 2.8797V0.881627H134.514Z" fill="#3F3D56"/>
<path d="M273.099 26.6121V312.348C273.096 315.751 271.742 319.015 269.336 321.421C266.93 323.827 263.668 325.179 260.266 325.18H144.334C142.648 325.183 140.979 324.853 139.421 324.209C137.863 323.565 136.448 322.62 135.256 321.428C134.063 320.236 133.118 318.821 132.474 317.262C131.829 315.704 131.498 314.034 131.5 312.348V26.6121C131.5 24.9258 131.832 23.256 132.477 21.698C133.122 20.14 134.067 18.7243 135.259 17.5319C136.45 16.3395 137.865 15.3937 139.422 14.7484C140.979 14.1031 142.648 13.7711 144.334 13.7712H161.683V15.9974C161.682 18.8014 162.795 21.4907 164.776 23.4739C166.758 25.4571 169.445 26.5717 172.247 26.5725H231.211C233.467 26.5773 235.664 25.8538 237.476 24.5095C237.842 24.2429 238.19 23.9512 238.516 23.6367C239.548 22.6506 240.369 21.465 240.929 20.1518C241.49 18.8386 241.778 17.4252 241.776 15.9974V13.7712H260.266C261.951 13.7707 263.62 14.1025 265.178 14.7476C266.735 15.3928 268.15 16.3386 269.342 17.5311C270.533 18.7236 271.479 20.1394 272.123 21.6975C272.768 23.2557 273.1 24.9257 273.099 26.6121Z" fill="#F2F2F2"/>
<path d="M241.242 243.235H163.758V159.762H241.242V243.235ZM164.752 242.241H240.248V160.756H164.752V242.241Z" fill="#3F3D56"/>
<path d="M224.79 74.2324H173.92V75.2264H224.79V74.2324Z" fill="#3F3D56"/>
<path d="M224.79 87.7625H173.92V88.7564H224.79V87.7625Z" fill="#3F3D56"/>
<path d="M224.79 101.292H173.92V102.286H224.79V101.292Z" fill="#3F3D56"/>
<path d="M158.597 342.189L158.124 342.012C158.02 341.972 147.679 338.008 142.835 329.019C137.991 320.03 140.363 309.207 140.387 309.099L140.499 308.606L140.971 308.783C141.075 308.822 151.416 312.787 156.261 321.776C161.105 330.765 158.733 341.588 158.708 341.696L158.597 342.189ZM143.611 328.601C147.706 336.201 155.878 340.097 157.949 340.986C158.342 338.766 159.577 329.787 155.485 322.194C151.393 314.602 143.218 310.7 141.147 309.809C140.753 312.03 139.519 321.008 143.611 328.601Z" fill="#3F3D56"/>
<path d="M146.537 325.866C155.243 331.107 158.595 341.516 158.595 341.516C158.595 341.516 147.834 343.429 139.128 338.188C130.422 332.948 127.07 322.538 127.07 322.538C127.07 322.538 137.831 320.626 146.537 325.866Z" fill="#FF9500"/>
<path d="M244.118 334.357L230.902 333.476L235.307 353.312L250.286 347.141L244.118 334.357Z" fill="#FFB9B9"/>
<path d="M365.271 297.329L334.432 267.354L316.81 281.019L282.006 322.896L285.971 329.067L328.264 300.415L356.901 337.884L384.215 324.219L365.271 297.329Z" fill="#2F2E41"/>
<path opacity="0.1" d="M365.271 297.329L334.432 267.354L316.81 281.019L282.006 322.896L285.971 329.067L328.264 300.415L356.901 337.884L384.215 324.219L365.271 297.329Z" fill="black"/>
<path d="M367.914 317.165L363.949 320.251L331.789 309.231L324.299 306.145L309.32 309.231C309.32 309.231 309.32 296.888 323.418 297.329L337.956 300.855L355.138 302.178L367.914 317.165Z" fill="#FFB9B9"/>
<path d="M396.551 349.786L386.858 355.957H375.404L322.097 336.12L244.118 350.226L241.916 333.476L313.286 302.178L375.845 322.896L396.551 349.786Z" fill="#2F2E41"/>
<path d="M333.992 271.321L327.383 272.643L325.943 270.962C324.803 269.631 324.081 267.994 323.867 266.254C323.653 264.514 323.956 262.75 324.74 261.182L343.243 236.937C343.243 236.937 348.53 225.035 356.9 229.884C365.271 234.733 349.852 242.668 349.852 242.668L340.6 257.215L341.481 264.709L333.992 271.321Z" fill="#FFB9B9"/>
<path d="M375.844 242.668C385.333 242.668 393.026 234.971 393.026 225.476C393.026 215.981 385.333 208.284 375.844 208.284C366.355 208.284 358.663 215.981 358.663 225.476C358.663 234.971 366.355 242.668 375.844 242.668Z" fill="#FFB9B9"/>
<path d="M368.135 238.039L376.065 256.994L395.009 249.06C395.009 249.06 388.841 234.072 388.841 233.631C388.841 233.19 368.135 238.039 368.135 238.039Z" fill="#FFB9B9"/>
<path d="M420.301 294.115C420.301 304.491 418.667 314.801 415.459 324.668L414.173 328.627L408.005 356.839L401.397 358.602L396.551 352.431L386.858 345.378L379.809 333.916L373.765 323.839L371.879 320.692L365.271 287.631L340.159 273.525L331.789 272.202L333.551 267.354L341.04 257.215L348.53 256.333L350.733 254.57L352.495 255.452L359.544 251.484L361.747 252.366L374.628 253.565L382.453 251.925L393.705 245.881L398.313 246.635L414.173 259.86C418.227 270.825 420.302 282.424 420.301 294.115Z" fill="#FF9500"/>
<path d="M234.958 341.183C234.958 341.183 238.904 334.491 237.238 333.71C235.571 332.929 228.493 329.814 228.493 329.814L218.113 326.372C218.113 326.372 203.135 304.1 202.807 323.468C202.478 342.837 213.712 347.493 213.712 347.493C213.712 347.493 223.732 369.069 229.407 365.628C235.083 362.188 240.763 350.509 240.763 350.509C240.763 350.509 230.528 345.003 234.958 341.183Z" fill="#2F2E41"/>
<path opacity="0.1" d="M415.495 290.276L398.753 301.296L373.765 323.839L371.879 320.692L366.593 294.243H367.914L381.572 269.117L415.495 290.276Z" fill="black"/>
<path d="M381.572 266.472L367.914 291.598H363.068L359.984 300.415L352.936 302.178L371.879 322.896L398.753 298.651L415.495 287.631L381.572 266.472Z" fill="#FF9500"/>
<path d="M362.481 212.693L360.619 213.41C360.333 213.216 360.088 212.967 359.899 212.677C359.71 212.387 359.581 212.063 359.519 211.722C359.457 211.382 359.464 211.032 359.539 210.695C359.613 210.357 359.755 210.037 359.955 209.755L356.514 209.594C358.723 206.651 361.531 204.211 364.752 202.435C367.973 200.659 371.535 199.588 375.201 199.292C378.867 198.996 382.554 199.483 386.018 200.72C389.482 201.956 392.644 203.915 395.295 206.466C395.452 205.926 397.159 206.977 397.856 208.041C398.09 207.163 399.691 211.409 400.258 214.41C400.52 213.411 401.528 215.024 400.645 216.572C401.204 216.49 401.457 217.922 401.024 218.72C401.636 218.433 401.533 220.142 400.869 221.285C401.742 221.207 393.981 233.261 390.838 240.305C389.925 236.11 388.899 231.692 385.957 228.567C385.457 228.036 384.909 227.552 384.362 227.069L381.405 224.457C377.966 221.42 374.838 217.671 370.256 216.536C367.108 215.756 365.117 215.579 366.833 212.03C365.283 212.677 363.835 213.64 362.271 214.241C362.292 213.745 362.511 213.19 362.481 212.693Z" fill="#2F2E41"/>
<path d="M384.435 230.546C386.138 230.546 387.519 229.164 387.519 227.46C387.519 225.756 386.138 224.374 384.435 224.374C382.732 224.374 381.351 225.756 381.351 227.46C381.351 229.164 382.732 230.546 384.435 230.546Z" fill="#FFB9B9"/>
<path d="M214.748 192.445C214.764 192.784 214.773 193.131 214.773 193.479C214.773 204.056 206.726 216.253 192.012 216.253C187.67 216.262 183.419 215.005 179.78 212.634C180.413 212.712 181.049 212.751 181.686 212.752C185.286 212.759 188.783 211.553 191.614 209.328C189.945 209.296 188.328 208.742 186.988 207.745C185.649 206.749 184.654 205.358 184.143 203.768C184.64 203.864 185.145 203.912 185.651 203.912C186.36 203.914 187.067 203.82 187.751 203.633C185.941 203.266 184.314 202.284 183.145 200.854C181.976 199.423 181.338 197.632 181.339 195.784V195.691C182.451 196.315 183.698 196.658 184.973 196.691C183.279 195.559 182.079 193.825 181.616 191.84C181.154 189.855 181.463 187.768 182.482 186.003C184.487 188.477 186.991 190.501 189.829 191.943C192.668 193.384 195.779 194.211 198.958 194.369C198.821 193.768 198.753 193.154 198.755 192.538C198.753 190.933 199.234 189.366 200.135 188.038C201.037 186.711 202.316 185.686 203.807 185.096C205.299 184.507 206.933 184.38 208.497 184.732C210.062 185.084 211.484 185.899 212.579 187.071C214.372 186.72 216.091 186.063 217.661 185.13C217.062 186.984 215.814 188.558 214.146 189.563C215.727 189.369 217.271 188.944 218.729 188.3C217.658 189.907 216.31 191.311 214.748 192.445Z" fill="#FF9500"/>
<path d="M202.552 235.079C196.266 235.079 190.121 233.214 184.895 229.719C179.668 226.225 175.594 221.258 173.189 215.447C170.783 209.637 170.154 203.242 171.38 197.074C172.607 190.905 175.633 185.238 180.078 180.791C184.523 176.343 190.186 173.315 196.351 172.088C202.517 170.861 208.907 171.49 214.714 173.897C220.522 176.304 225.486 180.38 228.978 185.61C232.47 190.84 234.334 196.988 234.334 203.278C234.325 211.709 230.973 219.792 225.015 225.754C219.057 231.715 210.978 235.069 202.552 235.079ZM202.552 172.358C196.44 172.358 190.466 174.172 185.384 177.569C180.303 180.966 176.342 185.795 174.003 191.445C171.664 197.095 171.052 203.312 172.244 209.31C173.437 215.307 176.38 220.817 180.701 225.141C185.023 229.465 190.529 232.41 196.523 233.603C202.518 234.796 208.731 234.184 214.377 231.843C220.024 229.503 224.85 225.54 228.245 220.455C231.641 215.371 233.453 209.393 233.453 203.278C233.444 195.08 230.185 187.221 224.392 181.425C218.599 175.628 210.745 172.368 202.552 172.358ZM195.309 219.576C190.881 219.584 186.547 218.303 182.836 215.887L181.255 214.858L183.128 215.08C183.743 215.154 184.363 215.191 184.983 215.192C188.091 215.205 191.132 214.28 193.708 212.539C192.171 212.29 190.733 211.621 189.553 210.605C188.373 209.589 187.497 208.265 187.023 206.782L186.794 206.066L187.53 206.216C188.057 206.321 188.594 206.367 189.13 206.353C187.66 205.677 186.414 204.595 185.54 203.233C184.665 201.871 184.199 200.288 184.195 198.669V197.817L184.851 198.185C185.461 198.527 186.116 198.781 186.797 198.939C185.456 197.624 184.591 195.9 184.338 194.039C184.086 192.177 184.46 190.285 185.402 188.66L185.723 188.108L186.125 188.603C188.033 190.953 190.4 192.889 193.08 194.293C195.761 195.698 198.699 196.541 201.716 196.773C201.646 196.326 201.611 195.875 201.612 195.423C201.61 193.751 202.105 192.116 203.034 190.726C203.962 189.335 205.283 188.253 206.828 187.615C208.373 186.978 210.073 186.815 211.711 187.146C213.349 187.477 214.852 188.288 216.028 189.475C217.686 189.125 219.275 188.503 220.731 187.635L221.727 187.044L221.375 188.148C220.945 189.495 220.183 190.711 219.158 191.684C220.081 191.463 220.982 191.159 221.85 190.775L223.235 190.162L222.395 191.422C221.339 193.008 220.019 194.401 218.492 195.54C218.502 195.809 218.507 196.083 218.507 196.356C218.507 207.77 209.83 219.576 195.309 219.576ZM184.874 216.074C188.081 217.8 191.667 218.7 195.309 218.694C209.278 218.694 217.626 207.337 217.626 196.356C217.626 196.017 217.618 195.677 217.601 195.346L217.59 195.107L217.783 194.967C218.9 194.158 219.906 193.207 220.776 192.136C219.709 192.494 218.609 192.742 217.493 192.879L215.434 193.132L217.212 192.064C218.438 191.33 219.432 190.266 220.08 188.992C218.777 189.64 217.392 190.11 215.963 190.388L215.724 190.435L215.557 190.257C214.523 189.149 213.179 188.378 211.7 188.045C210.221 187.712 208.677 187.832 207.267 188.389C205.858 188.946 204.649 189.915 203.797 191.17C202.946 192.425 202.491 193.906 202.493 195.423C202.49 196.003 202.556 196.581 202.687 197.146L202.824 197.718L202.237 197.689C199.108 197.529 196.044 196.737 193.23 195.358C190.417 193.979 187.912 192.044 185.867 189.669C185.092 191.311 184.933 193.178 185.418 194.928C185.904 196.678 187.002 198.195 188.513 199.203L189.775 200.048L188.257 200.01C187.169 199.981 186.097 199.739 185.102 199.296C185.241 200.928 185.904 202.471 186.991 203.694C188.079 204.917 189.533 205.755 191.136 206.083L192.967 206.451L191.165 206.941C190.173 207.21 189.139 207.296 188.116 207.195C188.691 208.531 189.639 209.673 190.846 210.483C192.053 211.294 193.468 211.739 194.921 211.765L196.157 211.789L195.185 212.552C192.28 214.847 188.684 216.089 184.983 216.074C184.947 216.074 184.911 216.074 184.874 216.074Z" fill="#3F3D56"/>
<path d="M479.56 68.4253C478.549 68.4092 477.565 68.0944 476.732 67.5207C475.899 66.9469 475.255 66.1397 474.879 65.2004C474.503 64.2611 474.413 63.2317 474.62 62.2414C474.827 61.2512 475.322 60.3442 476.043 59.6346C476.764 58.9249 477.678 58.4442 478.671 58.2528C479.664 58.0613 480.691 58.1678 481.624 58.5587C482.556 58.9496 483.352 59.6075 483.913 60.4499C484.473 61.2922 484.771 62.2814 484.771 63.2931C484.759 64.6647 484.203 65.9753 483.226 66.9375C482.249 67.8996 480.93 68.4347 479.56 68.4253ZM479.56 59.0423C478.723 59.0584 477.91 59.3214 477.222 59.7983C476.534 60.2751 476.002 60.9446 475.693 61.7228C475.384 62.501 475.311 63.3532 475.484 64.1724C475.657 64.9917 476.068 65.7416 476.666 66.328C477.263 66.9144 478.02 67.3112 478.842 67.4686C479.664 67.6261 480.514 67.5371 481.286 67.213C482.058 66.8889 482.717 66.3439 483.18 65.6466C483.643 64.9492 483.89 64.1305 483.89 63.2931C483.878 62.1552 483.415 61.0687 482.603 60.2718C481.791 59.475 480.697 59.0328 479.56 59.0423Z" fill="#3F3D56"/>
<path d="M485.524 75.4626H473.596C471.905 75.4641 470.282 74.8004 469.076 73.6147C468.479 73.0367 468.004 72.344 467.68 71.5781C467.356 70.8123 467.19 69.9889 467.191 69.1573V57.4286C467.193 56.598 467.36 55.776 467.683 55.0109C468.007 54.2459 468.479 53.5532 469.074 52.9736C470.277 51.7815 471.903 51.1159 473.596 51.1234H485.524C487.214 51.1217 488.838 51.7856 490.043 52.9716C490.641 53.5496 491.116 54.2421 491.439 55.008C491.763 55.7738 491.929 56.5971 491.928 57.4286V69.1573C491.927 69.988 491.759 70.81 491.436 71.5751C491.113 72.3402 490.64 73.0329 490.045 73.6126C488.843 74.8046 487.216 75.47 485.524 75.4626ZM473.596 52.005C472.135 51.9981 470.732 52.572 469.694 53.6003C469.182 54.0982 468.775 54.6933 468.497 55.3507C468.219 56.0082 468.074 56.7146 468.073 57.4286V69.1573C468.072 69.8713 468.214 70.5781 468.493 71.2356C468.771 71.893 469.178 72.4876 469.691 72.9839C470.733 74.0084 472.135 74.582 473.596 74.581H485.524C486.984 74.5877 488.388 74.0139 489.426 72.9858C489.937 72.4879 490.344 71.8927 490.622 71.2353C490.901 70.5778 491.045 69.8713 491.047 69.1573V57.4286C491.048 56.7147 490.905 56.0079 490.627 55.3505C490.349 54.6931 489.941 54.0986 489.428 53.6025C488.387 52.5777 486.984 52.0039 485.524 52.005L473.596 52.005ZM479.56 70.7712C478.087 70.747 476.654 70.2879 475.441 69.4514C474.228 68.615 473.289 67.4386 472.742 66.0699C472.195 64.7013 472.064 63.2015 472.367 61.7588C472.669 60.3161 473.39 58.995 474.44 57.9613C475.491 56.9276 476.823 56.2275 478.269 55.9488C479.716 55.6702 481.212 55.8254 482.571 56.3951C483.93 56.9647 485.09 57.9234 485.906 59.1507C486.722 60.3779 487.157 61.8191 487.157 63.2931C487.138 65.292 486.328 67.2019 484.904 68.6038C483.479 70.0057 481.558 70.7852 479.56 70.7712ZM479.56 56.6966C478.261 56.7207 476.998 57.1282 475.93 57.8677C474.862 58.6072 474.036 59.6459 473.556 60.8535C473.076 62.061 472.962 63.3836 473.231 64.6553C473.499 65.927 474.136 67.091 475.063 68.0015C475.99 68.9119 477.165 69.5281 478.441 69.7727C479.717 70.0174 481.036 69.8796 482.234 69.3767C483.432 68.8738 484.454 68.0281 485.173 66.9458C485.892 65.8635 486.276 64.5927 486.276 63.2931C486.257 61.5278 485.54 59.842 484.281 58.6054C483.022 57.3688 481.324 56.6823 479.56 56.6966ZM487.313 57.8694C486.879 57.8634 486.457 57.7293 486.1 57.4839C485.742 57.2385 485.465 56.8928 485.303 56.4902C485.141 56.0877 485.102 55.6463 485.19 55.2215C485.279 54.7967 485.49 54.4075 485.799 54.1028C486.108 53.7981 486.5 53.5916 486.925 53.5091C487.351 53.4267 487.792 53.472 488.192 53.6394C488.592 53.8068 488.933 54.0889 489.174 54.45C489.414 54.8112 489.542 55.2354 489.542 55.6692C489.538 56.2566 489.3 56.818 488.882 57.2305C488.464 57.643 487.9 57.8727 487.313 57.8694ZM487.313 54.3509C487.054 54.3569 486.802 54.4393 486.589 54.5878C486.376 54.7363 486.212 54.9443 486.117 55.1858C486.022 55.4272 486 55.6914 486.054 55.9452C486.109 56.199 486.236 56.4312 486.422 56.6126C486.608 56.794 486.842 56.9166 487.097 56.965C487.352 57.0134 487.616 56.9855 487.855 56.8848C488.094 56.7841 488.298 56.615 488.441 56.3988C488.585 56.1826 488.661 55.9288 488.661 55.6692C488.657 55.3157 488.512 54.9783 488.259 54.7312C488.007 54.4841 487.666 54.3473 487.313 54.3509Z" fill="#3F3D56"/>
<path d="M479.253 91.8138C463.403 91.8138 450.507 79.1301 450.507 63.5395C450.507 47.949 463.403 35.265 479.253 35.265C495.104 35.265 508 47.949 508 63.5395C508 79.1301 495.104 91.8138 479.253 91.8138ZM479.253 36.1466C463.889 36.1466 451.388 48.435 451.388 63.5395C451.388 78.6438 463.889 90.9322 479.253 90.9322C494.619 90.9322 507.119 78.6438 507.119 63.5395C507.119 48.435 494.619 36.1466 479.253 36.1466ZM485.524 77.8083H473.596C471.285 77.8246 469.061 76.923 467.413 75.3013C465.765 73.6795 464.828 71.4699 464.806 69.1573V57.4286C464.828 55.116 465.765 52.9064 467.413 51.2846C469.061 49.6629 471.285 48.7613 473.596 48.7776H485.524C487.835 48.7613 490.058 49.6629 491.706 51.2846C493.354 52.9064 494.292 55.116 494.314 57.4286V69.1573C494.292 71.4699 493.354 73.6795 491.706 75.3013C490.058 76.923 487.835 77.8246 485.524 77.8083ZM473.596 49.6593C471.518 49.6427 469.519 50.4514 468.036 51.9078C466.553 53.3643 465.709 55.3497 465.687 57.4286V69.1573C465.709 71.2362 466.553 73.2216 468.036 74.6781C469.519 76.1345 471.518 76.9432 473.596 76.9266H485.524C487.601 76.9432 489.601 76.1345 491.083 74.6781C492.566 73.2216 493.411 71.2362 493.432 69.1573V57.4286C493.411 55.3497 492.566 53.3643 491.083 51.9078C489.601 50.4514 487.601 49.6427 485.524 49.6593H473.596Z" fill="#3F3D56"/>
<path d="M31.1586 188.29C13.9778 188.29 0 174.236 0 156.961C0 139.686 13.9778 125.632 31.1586 125.632C48.3394 125.632 62.3172 139.686 62.3172 156.961C62.3172 174.236 48.3394 188.29 31.1586 188.29ZM31.1586 126.514C14.4635 126.514 0.881112 140.172 0.881112 156.961C0.881112 173.75 14.4635 187.408 31.1586 187.408C47.8537 187.408 61.4361 173.75 61.4361 156.961C61.4361 140.172 47.8537 126.514 31.1586 126.514ZM31.3425 175.44C29.5609 175.438 27.7889 175.18 26.0808 174.674L25.5236 174.509L25.8321 174.017C26.6011 172.847 27.1967 171.572 27.6004 170.231C27.8236 169.429 28.8661 165.27 28.8764 165.228L29.1576 164.106L29.6941 165.13C30.2179 166.13 31.8704 167.164 33.7292 167.164C39.2286 167.164 43.0695 162.21 43.0695 155.117C43.0695 150.204 38.9434 145.121 32.0384 145.121C23.4082 145.121 19.5264 151.518 19.5264 156.061C19.5264 159.328 20.7803 161.718 22.9668 162.617C23.0295 162.65 23.1028 162.658 23.1709 162.637C23.2294 162.594 23.2684 162.529 23.2793 162.457C23.3277 162.28 23.4045 161.972 23.4794 161.672C23.5457 161.406 23.6102 161.147 23.6519 160.991C23.7309 160.695 23.7356 160.677 23.48 160.37C22.5897 159.288 22.1273 157.917 22.1807 156.517C22.1807 152.072 25.4625 147.347 31.5447 147.347C36.3928 147.347 39.5255 150.26 39.5255 154.768C39.5255 160.542 36.8667 164.897 33.3409 164.897C32.8232 164.907 32.3101 164.798 31.8402 164.581C31.3704 164.363 30.9562 164.041 30.6288 163.639C30.3243 163.25 30.1135 162.796 30.0128 162.312C29.912 161.829 29.9241 161.328 30.0479 160.85C30.2489 159.993 30.5182 159.118 30.7785 158.272C31.2205 156.834 31.6383 155.477 31.6383 154.483C31.6383 153.945 31.4939 152.19 29.6356 152.19C27.9228 152.19 26.5811 154.069 26.5811 156.468C26.5718 157.39 26.7544 158.304 27.1174 159.151L27.1878 159.293L27.1521 159.448C27.1521 159.448 25.17 167.901 24.8221 169.381C24.5427 170.717 24.4404 172.083 24.518 173.445L24.5448 174.15L23.8995 173.865C19.9937 172.135 16.799 169.117 14.8484 165.315C12.8977 161.513 12.3092 157.156 13.181 152.972C14.0528 148.788 16.3322 145.03 19.6389 142.324C22.9455 139.619 27.0793 138.13 31.3507 138.106C33.7946 138.111 36.2134 138.599 38.4689 139.541C40.7243 140.482 42.7722 141.86 44.4954 143.594C46.2185 145.328 47.5832 147.385 48.5115 149.647C49.4397 151.909 49.9132 154.332 49.905 156.777C49.9112 161.713 47.9604 166.45 44.4804 169.949C41.0005 173.448 36.2757 175.423 31.3425 175.44ZM26.8847 173.982C31.2942 175.152 35.9845 174.58 39.9844 172.385C43.9842 170.19 46.9872 166.54 48.3714 162.191C49.7556 157.842 49.4151 153.126 47.4203 149.021C45.4256 144.916 41.9294 141.736 37.6557 140.139C33.3821 138.542 28.6583 138.651 24.4627 140.443C20.2671 142.235 16.9209 145.573 15.1172 149.766C13.3135 153.958 13.1904 158.684 14.7734 162.965C16.3563 167.246 19.5241 170.754 23.6207 172.763C23.5944 171.559 23.7097 170.356 23.9643 169.18C24.2852 167.814 25.9962 160.517 26.26 159.392C25.8844 158.463 25.6942 157.47 25.7 156.468C25.7 153.575 27.4287 151.309 29.6356 151.309C31.3875 151.309 32.5194 152.555 32.5194 154.483C32.5194 155.609 32.0827 157.029 31.6204 158.531C31.3644 159.363 31.0999 160.224 30.9058 161.051C30.8135 161.4 30.8028 161.766 30.8745 162.12C30.9462 162.473 31.0984 162.806 31.3193 163.092C31.5644 163.389 31.8737 163.626 32.2239 163.786C32.5741 163.946 32.956 164.025 33.3409 164.015C36.3644 164.015 38.6444 160.04 38.6444 154.768C38.6444 150.734 35.924 148.229 31.5447 148.229C26.035 148.229 23.0619 152.499 23.0619 156.517C23.0119 157.709 23.401 158.879 24.1553 159.804C24.3465 159.979 24.4817 160.206 24.5436 160.458C24.6056 160.71 24.5915 160.974 24.5033 161.218C24.4625 161.372 24.3992 161.625 24.3342 161.885C24.2577 162.193 24.1787 162.509 24.1303 162.685C24.0987 162.844 24.0312 162.993 23.933 163.122C23.8347 163.25 23.7084 163.355 23.5636 163.427C23.4189 163.499 23.2596 163.537 23.0979 163.538C22.9362 163.538 22.7765 163.502 22.631 163.432C20.1356 162.406 18.6453 159.65 18.6453 156.061C18.6453 150.25 23.6549 144.239 32.0384 144.239C39.4949 144.239 43.9506 149.77 43.9506 155.117C43.9506 162.608 39.652 168.045 33.7292 168.045C32.1547 168.042 30.6419 167.433 29.5048 166.343C29.1819 167.627 28.6122 169.882 28.4501 170.465C28.0866 171.701 27.5602 172.884 26.8847 173.982Z" fill="#3F3D56"/>
<path d="M441.355 155.948C436 155.969 430.695 154.93 425.743 152.89C411.93 147.129 402.782 134.723 393.936 122.725C389.16 116.248 384.222 109.55 378.581 103.911C369.542 94.874 359.055 89.036 348.255 87.0276C336.117 84.7697 323.747 87.6897 315.168 94.8355C314.083 95.7402 313.061 96.7181 312.109 97.7621C313.361 97.9143 314.609 98.0767 315.855 98.2494C328.954 100.066 345.383 105.104 349.259 118.79C350.747 124.043 349.688 129.99 346.354 135.105C342.782 140.586 337.096 144.354 331.145 145.186C330.176 145.321 329.198 145.388 328.219 145.388C317.502 145.388 306.943 137.418 303.817 126.461C301.169 117.182 303.84 106.37 310.355 98.4429C302.479 97.5448 294.562 97.0526 286.636 96.9681L286.645 96.0865C294.799 96.1733 302.942 96.6901 311.041 97.6347C312.137 96.3848 313.328 95.2223 314.605 94.1579C323.383 86.8462 336.023 83.8569 348.416 86.1606C359.392 88.2018 370.038 94.1239 379.204 103.287C384.892 108.973 389.85 115.698 394.646 122.201C403.824 134.651 412.494 146.409 426.082 152.077C439.74 157.774 456.51 155.182 467.813 145.629C479.117 136.077 484.475 119.966 481.147 105.541L482.006 105.342C485.406 120.082 479.931 136.542 468.381 146.303C460.917 152.611 451.118 155.948 441.355 155.948ZM311.401 98.5649C304.797 106.308 302.045 117.041 304.664 126.219C307.959 137.767 319.785 145.883 331.023 144.313C336.725 143.516 342.181 139.894 345.616 134.623C348.811 129.722 349.83 124.038 348.412 119.03C344.665 105.802 328.573 100.903 315.734 99.1228C314.294 98.9231 312.85 98.7371 311.401 98.5649Z" fill="#3F3D56"/>
<path d="M99.9034 150.319C95.9484 150.333 92.0042 149.906 88.1433 149.048C78.543 146.983 69.9173 141.743 63.6563 134.174C61.5897 131.697 59.7074 128.917 57.8873 126.229C55.1242 122.147 52.267 117.927 48.7572 114.787C45.2648 111.662 40.6667 110.018 36.7606 110.492C35.34 110.655 33.9724 111.127 32.7543 111.877C31.5362 112.626 30.4973 113.634 29.7111 114.829L28.9832 114.332C29.8388 113.032 30.9694 111.936 32.2948 111.122C33.6203 110.307 35.1084 109.793 36.6539 109.617C40.8661 109.105 45.6128 110.79 49.3444 114.129C52.9353 117.342 55.8237 121.608 58.6168 125.734C60.4248 128.405 62.2944 131.166 64.3326 133.608C76.219 147.85 95.099 152.827 116.133 147.263L116.358 148.115C110.991 149.555 105.46 150.296 99.9034 150.319Z" fill="#3F3D56"/>
</g>
<defs>
<clipPath id="clip0">
<rect width="508" height="366" fill="white"/>
</clipPath>
</defs>
</svg>
