<svg width="464" height="372" viewBox="0 0 464 372" fill="none" xmlns="http://www.w3.org/2000/svg">
<path d="M238.442 275.28C230.063 275.28 223.268 271.172 223.268 266.105V187.989C223.268 182.922 230.063 178.814 238.442 178.814C246.821 178.814 253.616 182.922 253.616 187.989V266.105C253.616 271.172 246.821 275.28 238.442 275.28Z" fill="#2A94F4"/>
<path d="M380.254 251.449H96.6298C88.2494 251.449 81.4546 247.341 81.4546 242.274C81.4546 237.207 88.2494 233.099 96.6298 233.099H380.252C388.633 233.099 395.427 237.207 395.427 242.274C395.429 247.341 388.634 251.449 380.254 251.449Z" fill="#2A94F4"/>
<path opacity="0.6" fill-rule="evenodd" clip-rule="evenodd" d="M399.04 67.4988C399.04 71.0403 396.97 74.4815 393.062 77.7269C392.453 78.2169 391.842 78.7099 391.153 79.201C390.176 79.9132 389.118 80.6039 387.98 81.2908C387.656 81.4886 387.331 81.6591 387.005 81.8569C386.681 82.0537 386.314 82.2242 385.948 82.4229C385.012 82.9393 384.037 83.4313 383.022 83.9224C382.168 84.3403 381.274 84.7593 380.378 85.15C379.445 85.5699 378.512 85.9615 377.532 86.3571C375.543 87.1667 373.466 87.9296 371.269 88.6925C371.269 88.6925 371.231 88.6925 371.231 88.7158C369.888 89.1825 368.466 89.6268 367.004 90.0925C365.578 90.5368 364.117 90.9791 362.61 91.4195C360.699 91.9622 358.708 92.5029 356.674 93.0183C355.371 93.3379 354.07 93.6594 352.73 93.978C351.349 94.3209 349.966 94.6424 348.542 94.9347C347.161 95.2543 345.693 95.5758 344.232 95.871C342.77 96.1633 341.304 96.4595 339.757 96.7547C339.03 96.9018 338.255 97.0489 337.48 97.1717C336.754 97.3198 335.98 97.4679 335.165 97.5906C333.62 97.8858 332.036 98.1547 330.449 98.4022C327.278 98.9439 323.983 99.434 320.612 99.9016C317.481 100.321 314.308 100.738 311.095 101.13C309.473 101.328 307.844 101.525 306.216 101.697C304.549 101.893 302.886 102.066 301.215 102.239C300.485 102.287 299.792 102.361 299.102 102.435C298.369 102.508 297.676 102.582 296.947 102.632C294.953 102.827 292.962 102.999 290.97 103.147C289.056 103.295 287.108 103.443 285.113 103.589C283.979 103.663 282.798 103.763 281.618 103.811C278.243 104.059 274.786 104.254 271.293 104.426C271.05 104.45 270.761 104.45 270.518 104.45C267.714 104.598 264.869 104.721 261.981 104.794C261.537 104.818 261.047 104.818 260.599 104.845C259.05 104.893 257.468 104.943 255.923 104.993C255.475 104.993 255.03 105.016 254.584 105.016C252.915 105.065 251.29 105.091 249.621 105.114C247.791 105.138 245.92 105.189 244.052 105.189C242.178 105.212 240.313 105.212 238.442 105.212C236.571 105.212 234.702 105.212 232.833 105.189C230.964 105.189 229.095 105.138 227.263 105.114C225.595 105.091 223.969 105.065 222.302 105.016C221.857 105.016 221.407 104.993 220.961 104.993C219.414 104.943 217.829 104.893 216.285 104.845C215.839 104.819 215.349 104.819 214.901 104.794C212.017 104.721 209.169 104.598 206.364 104.45C206.119 104.45 205.836 104.45 205.592 104.426C202.094 104.254 198.641 104.059 195.264 103.811C194.086 103.764 192.948 103.663 191.809 103.589C189.821 103.443 187.866 103.295 185.915 103.147C183.922 102.999 181.93 102.827 179.939 102.632C179.206 102.582 178.513 102.508 177.781 102.435C177.092 102.361 176.404 102.287 175.667 102.239C174 102.067 172.334 101.894 170.669 101.697C169.042 101.525 167.413 101.328 165.788 101.13C162.576 100.739 159.403 100.321 156.274 99.9016C152.898 99.4349 149.605 98.9439 146.437 98.4022C144.85 98.1547 143.264 97.8858 141.719 97.5906C140.904 97.4679 140.132 97.3198 139.403 97.1717C138.63 97.0499 137.855 96.9018 137.125 96.7547C135.578 96.4595 134.114 96.1633 132.652 95.871C131.187 95.5748 129.765 95.2533 128.342 94.9347C126.919 94.6414 125.537 94.3199 124.154 93.978C122.813 93.6584 121.51 93.3369 120.21 93.0183C118.176 92.5029 116.185 91.9622 114.274 91.4195C112.767 90.9781 111.306 90.5358 109.88 90.0925C108.418 89.6268 106.995 89.1835 105.653 88.7158C105.653 88.6925 105.613 88.6925 105.613 88.6925C103.42 87.9296 101.343 87.1667 99.3514 86.3571C98.3749 85.9615 97.4388 85.5699 96.5058 85.15C95.6099 84.7593 94.7173 84.3403 93.8617 83.9224C92.8449 83.4547 91.8685 82.9393 90.9356 82.4229C90.2411 82.0546 89.5933 81.6854 88.944 81.2918C87.7242 80.5552 86.585 79.8411 85.5667 79.0811C84.9576 78.6368 84.3486 78.1955 83.8217 77.7278C79.9159 74.4825 77.8438 71.0413 77.8438 67.4998C77.8438 46.652 149.725 29.7637 238.442 29.7637C327.158 29.7637 399.04 46.651 399.04 67.4988Z" fill="#FF9500"/>
<path opacity="0.6" fill-rule="evenodd" clip-rule="evenodd" d="M105.611 88.6915C103.375 87.952 101.303 87.1657 99.3499 86.3561C101.341 87.1657 103.418 87.9286 105.611 88.6915Z" fill="#FF9500"/>
<path opacity="0.6" fill-rule="evenodd" clip-rule="evenodd" d="M377.532 86.3561C375.58 87.1657 373.507 87.952 371.269 88.6915C373.465 87.9286 375.542 87.1657 377.532 86.3561Z" fill="#FF9500"/>
<path fill-rule="evenodd" clip-rule="evenodd" d="M399.04 67.4988V87.953C399.04 90.0672 398.309 92.157 396.846 94.1748C392.698 100.075 382.739 105.507 368.345 110.129C339.192 119.568 291.869 125.69 238.444 125.69C185.018 125.69 137.694 119.568 108.542 110.129C94.1468 105.507 84.189 100.074 80.0415 94.1748C78.5768 92.158 77.8469 90.0682 77.8469 87.953V67.4988C77.8469 71.0403 79.9191 74.4815 83.8248 77.7269C84.3517 78.1936 84.9608 78.6359 85.5699 79.0802C86.5882 79.8401 87.7274 80.5542 88.9472 81.2908C89.5965 81.6844 90.2459 82.0537 90.9387 82.422C91.8717 82.9383 92.8497 83.4537 93.8648 83.9214C94.7188 84.3393 95.6131 84.7583 96.509 85.149C97.4419 85.5689 98.3765 85.9606 99.3545 86.3561C101.307 87.1658 103.38 87.952 105.616 88.6915C105.616 88.6915 105.656 88.6915 105.656 88.7149C106.999 89.1816 108.421 89.6258 109.883 90.0915C111.309 90.5358 112.77 90.9781 114.277 91.4185C116.188 91.9612 118.179 92.5019 120.213 93.0173C121.515 93.3369 122.817 93.6584 124.157 93.977C125.538 94.3199 126.922 94.6415 128.345 94.9337C129.768 95.2533 131.191 95.5748 132.655 95.87C134.117 96.1623 135.581 96.4585 137.128 96.7537C137.858 96.9008 138.633 97.048 139.407 97.1707C140.133 97.3188 140.907 97.4669 141.722 97.5897C143.267 97.8849 144.851 98.1538 146.44 98.4012C149.609 98.9429 152.903 99.433 156.277 99.9007C159.406 100.32 162.579 100.737 165.792 101.129C167.416 101.327 169.046 101.524 170.672 101.696C172.335 101.892 174.001 102.066 175.671 102.238C176.405 102.286 177.095 102.36 177.785 102.434C178.516 102.507 179.209 102.581 179.942 102.631C181.934 102.826 183.925 102.998 185.918 103.146C187.87 103.294 189.824 103.442 191.813 103.588C192.952 103.662 194.088 103.762 195.267 103.81C198.644 104.058 202.097 104.253 205.596 104.425C205.839 104.449 206.122 104.449 206.367 104.449C209.173 104.597 212.02 104.72 214.904 104.794C215.352 104.817 215.842 104.817 216.288 104.844C217.832 104.892 219.417 104.942 220.964 104.992C221.41 104.992 221.86 105.015 222.305 105.015C223.972 105.064 225.598 105.09 227.266 105.113C229.098 105.137 230.967 105.188 232.836 105.188C234.705 105.211 236.574 105.211 238.445 105.211C240.316 105.211 242.182 105.211 244.056 105.188C245.923 105.188 247.794 105.137 249.624 105.113C251.294 105.09 252.918 105.064 254.587 105.015C255.033 105.015 255.478 104.992 255.926 104.992C257.471 104.942 259.054 104.892 260.602 104.844C261.05 104.818 261.54 104.818 261.985 104.794C264.872 104.72 267.718 104.597 270.521 104.449C270.765 104.449 271.053 104.449 271.296 104.425C274.79 104.253 278.246 104.058 281.622 103.81C282.801 103.763 283.982 103.662 285.116 103.588C287.11 103.442 289.059 103.294 290.974 103.146C292.965 102.998 294.957 102.826 296.95 102.631C297.68 102.581 298.373 102.507 299.106 102.434C299.795 102.36 300.487 102.286 301.218 102.238C302.887 102.066 304.55 101.893 306.22 101.696C307.849 101.524 309.476 101.327 311.099 101.129C314.312 100.738 317.484 100.32 320.615 99.9007C323.987 99.434 327.283 98.9429 330.452 98.4012C332.037 98.1538 333.623 97.8849 335.168 97.5897C335.984 97.4669 336.755 97.3188 337.484 97.1707C338.259 97.0489 339.034 96.9008 339.76 96.7537C341.307 96.4585 342.774 96.1623 344.235 95.87C345.696 95.5738 347.163 95.2523 348.545 94.9337C349.97 94.6405 351.351 94.319 352.733 93.977C354.074 93.6574 355.376 93.3359 356.677 93.0173C358.711 92.5019 360.703 91.9612 362.613 91.4185C364.12 90.9772 365.582 90.5348 367.008 90.0915C368.469 89.6258 369.892 89.1825 371.234 88.7149C371.234 88.6915 371.273 88.6915 371.273 88.6915C373.511 87.952 375.583 87.1658 377.536 86.3561C378.514 85.9606 379.448 85.5689 380.381 85.149C381.277 84.7583 382.17 84.3393 383.025 83.9214C384.042 83.4303 385.015 82.9383 385.952 82.422C386.319 82.2232 386.685 82.0537 387.009 81.8559C387.334 81.6591 387.66 81.4876 387.983 81.2898C389.161 80.603 390.221 79.9122 391.156 79.2C391.846 78.7099 392.498 78.2169 393.065 77.7259C396.97 74.4815 399.04 71.0403 399.04 67.4988Z" fill="#FF9500"/>
<path fill-rule="evenodd" clip-rule="evenodd" d="M105.611 88.6915C103.375 87.952 101.303 87.1657 99.3499 86.3561C101.341 87.1657 103.418 87.9286 105.611 88.6915Z" fill="#FF9500"/>
<path fill-rule="evenodd" clip-rule="evenodd" d="M377.532 86.3561C375.58 87.1657 373.507 87.952 371.269 88.6915C373.465 87.9286 375.542 87.1657 377.532 86.3561Z" fill="#FF9500"/>
<path opacity="0.6" fill-rule="evenodd" clip-rule="evenodd" d="M399.04 100.394C399.04 103.933 396.97 107.375 393.062 110.62C390.706 112.612 387.658 114.53 383.997 116.349C358.384 129.207 302.846 138.103 238.442 138.103C174.042 138.103 118.5 129.207 92.8868 116.349C89.2276 114.53 86.1758 112.612 83.8217 110.62C79.9159 107.375 77.8438 103.933 77.8438 100.394C77.8438 98.2794 78.5737 96.1896 80.0383 94.1747C84.1858 100.075 94.1453 105.507 108.539 110.129C137.691 119.568 185.014 125.69 238.44 125.69C291.866 125.69 339.188 119.568 368.342 110.129C382.737 105.507 392.695 100.074 396.842 94.1747C398.309 96.1886 399.04 98.2784 399.04 100.394Z" fill="#FF9500"/>
<path opacity="0.6" fill-rule="evenodd" clip-rule="evenodd" d="M105.611 88.6915C103.375 87.952 101.303 87.1657 99.3499 86.3561C101.341 87.1657 103.418 87.9286 105.611 88.6915Z" fill="#FF9500"/>
<path opacity="0.6" fill-rule="evenodd" clip-rule="evenodd" d="M377.532 86.3561C375.58 87.1657 373.507 87.952 371.269 88.6915C373.465 87.9286 375.542 87.1657 377.532 86.3561Z" fill="#FF9500"/>
<path fill-rule="evenodd" clip-rule="evenodd" d="M399.04 100.394V120.847C399.04 122.789 398.429 124.707 397.171 126.576C397.208 126.576 397.208 126.576 397.171 126.601C385.42 144.719 318.823 158.584 238.442 158.584C158.061 158.584 91.4641 144.719 79.7129 126.601C79.6742 126.576 79.6742 126.576 79.7129 126.576C78.4512 124.708 77.8438 122.789 77.8438 120.847V100.394C77.8438 103.933 79.9159 107.375 83.8217 110.62C86.1758 112.612 89.226 114.53 92.8868 116.349C118.5 129.207 174.042 138.103 238.442 138.103C302.846 138.103 358.384 129.207 383.997 116.349C387.656 114.53 390.706 112.612 393.062 110.62C396.97 107.374 399.04 103.932 399.04 100.394Z" fill="#FF9500"/>
<path opacity="0.6" fill-rule="evenodd" clip-rule="evenodd" d="M399.04 132.302C399.04 135.842 396.97 139.308 393.062 142.555C374.075 158.41 312.035 170.039 238.442 170.039C164.849 170.039 102.808 158.41 83.8217 142.555C79.9159 139.308 77.8438 135.842 77.8438 132.302C77.8438 130.359 78.4512 128.444 79.7129 126.6C91.4641 144.718 158.061 158.583 238.442 158.583C318.823 158.583 385.42 144.718 397.171 126.6C398.429 128.444 399.04 130.359 399.04 132.302Z" fill="#FF9500"/>
<path fill-rule="evenodd" clip-rule="evenodd" d="M399.04 132.302V152.781C399.04 173.604 327.158 190.493 238.442 190.493C149.725 190.493 77.8438 173.604 77.8438 152.781V132.302C77.8438 135.842 79.9159 139.308 83.8217 142.555C102.808 158.41 164.849 170.039 238.442 170.039C312.035 170.039 374.075 158.41 393.062 142.555C396.97 139.308 399.04 135.842 399.04 132.302Z" fill="#FF9500"/>
<path d="M211.759 121.206C216.389 121.206 220.142 118.936 220.142 116.137C220.142 113.337 216.389 111.068 211.759 111.068C207.129 111.068 203.375 113.337 203.375 116.137C203.375 118.936 207.129 121.206 211.759 121.206Z" fill="#2A94F4"/>
<path d="M238.442 121.208C243.073 121.208 246.827 118.938 246.827 116.138C246.827 113.337 243.073 111.067 238.442 111.067C233.811 111.067 230.057 113.337 230.057 116.138C230.057 118.938 233.811 121.208 238.442 121.208Z" fill="#2A94F4"/>
<path d="M265.124 121.208C269.756 121.208 273.51 118.938 273.51 116.137C273.51 113.336 269.756 111.066 265.124 111.066C260.492 111.066 256.737 113.336 256.737 116.137C256.737 118.938 260.492 121.208 265.124 121.208Z" fill="#2A94F4"/>
<path d="M211.759 153.388C216.389 153.388 220.142 151.118 220.142 148.318C220.142 145.519 216.389 143.249 211.759 143.249C207.129 143.249 203.375 145.519 203.375 148.318C203.375 151.118 207.129 153.388 211.759 153.388Z" fill="#2A94F4"/>
<path d="M238.442 153.389C243.073 153.389 246.827 151.119 246.827 148.319C246.827 145.519 243.073 143.249 238.442 143.249C233.811 143.249 230.057 145.519 230.057 148.319C230.057 151.119 233.811 153.389 238.442 153.389Z" fill="#2A94F4"/>
<path d="M265.124 153.39C269.756 153.39 273.51 151.12 273.51 148.319C273.51 145.518 269.756 143.248 265.124 143.248C260.492 143.248 256.737 145.518 256.737 148.319C256.737 151.12 260.492 153.39 265.124 153.39Z" fill="#2A94F4"/>
<path d="M211.759 185.571C216.389 185.571 220.142 183.301 220.142 180.502C220.142 177.702 216.389 175.432 211.759 175.432C207.129 175.432 203.375 177.702 203.375 180.502C203.375 183.301 207.129 185.571 211.759 185.571Z" fill="#2A94F4"/>
<path d="M238.442 185.572C243.073 185.572 246.827 183.302 246.827 180.502C246.827 177.702 243.073 175.432 238.442 175.432C233.811 175.432 230.057 177.702 230.057 180.502C230.057 183.302 233.811 185.572 238.442 185.572Z" fill="#2A94F4"/>
<path d="M265.124 185.573C269.756 185.573 273.51 183.302 273.51 180.501C273.51 177.701 269.756 175.43 265.124 175.43C260.492 175.43 256.737 177.701 256.737 180.501C256.737 183.302 260.492 185.573 265.124 185.573Z" fill="#2A94F4"/>
<path d="M270.573 256.466C270.573 259.357 266.694 261.702 261.912 261.702H214.97C210.188 261.702 206.309 259.358 206.309 256.466V228.082C206.309 225.19 210.188 222.845 214.97 222.845H261.912C266.694 222.845 270.573 225.189 270.573 228.082V256.466Z" fill="#FFBE55"/>
</svg>
