<svg width="504" height="384" viewBox="0 0 504 384" fill="none" xmlns="http://www.w3.org/2000/svg">
<path d="M82.8438 275.261H45.3734C44.3587 275.259 43.386 274.841 42.6685 274.096C41.951 273.351 41.5474 272.342 41.5461 271.288V143.143C41.5474 142.09 41.951 141.08 42.6685 140.336C43.386 139.591 44.3587 139.172 45.3734 139.171H82.8438C83.8584 139.172 84.8312 139.591 85.5487 140.336C86.2662 141.08 86.6698 142.09 86.671 143.143V271.288C86.6698 272.342 86.2662 273.351 85.5487 274.096C84.8312 274.841 83.8584 275.259 82.8438 275.261Z" fill="#FF9500"/>
<path d="M151.176 275.261H113.705C112.691 275.259 111.718 274.841 111.001 274.096C110.283 273.351 109.879 272.342 109.878 271.288V92.2922C109.879 91.2391 110.283 90.2294 111.001 89.4848C111.718 88.7402 112.691 88.3213 113.705 88.3201H151.176C152.19 88.3213 153.163 88.7402 153.881 89.4848C154.598 90.2294 155.002 91.2391 155.003 92.2922V271.288C155.002 272.342 154.598 273.351 153.881 274.096C153.163 274.841 152.19 275.259 151.176 275.261Z" fill="#FF9500"/>
<path d="M219.508 275.261H182.037C181.023 275.259 180.05 274.841 179.332 274.096C178.615 273.351 178.211 272.342 178.21 271.288V143.143C178.211 142.09 178.615 141.08 179.332 140.336C180.05 139.591 181.023 139.172 182.037 139.171H219.508C220.522 139.172 221.495 139.591 222.213 140.336C222.93 141.08 223.334 142.09 223.335 143.143V271.288C223.334 272.342 222.93 273.351 222.213 274.096C221.495 274.841 220.522 275.259 219.508 275.261Z" fill="#FF9500"/>
<path d="M287.84 275.261H250.369C249.378 275.283 248.418 274.896 247.701 274.185C246.983 273.474 246.567 272.497 246.542 271.468V72.0395C246.567 71.0104 246.983 70.0335 247.701 69.3227C248.418 68.6119 249.378 68.2252 250.369 68.2474H287.84C288.831 68.2252 289.791 68.6119 290.508 69.3227C291.225 70.0335 291.642 71.0104 291.667 72.0395V271.468C291.642 272.497 291.225 273.474 290.508 274.185C289.791 274.896 288.831 275.283 287.84 275.261Z" fill="#FF9500"/>
<path d="M356.171 275.261H318.701C317.686 275.259 316.714 274.841 315.996 274.096C315.279 273.351 314.875 272.342 314.874 271.288V36.0885C314.875 35.0354 315.279 34.0258 315.996 33.2811C316.714 32.5365 317.686 32.1176 318.701 32.1165H356.171C357.186 32.1176 358.159 32.5365 358.876 33.2811C359.594 34.0258 359.997 35.0354 359.999 36.0885V271.288C359.997 272.342 359.594 273.351 358.876 274.096C358.159 274.841 357.186 275.259 356.171 275.261Z" fill="#FF9500"/>
<path d="M64.1085 123.113C68.3808 123.113 71.8442 119.518 71.8442 115.084C71.8442 110.649 68.3808 107.055 64.1085 107.055C59.8362 107.055 56.3728 110.649 56.3728 115.084C56.3728 119.518 59.8362 123.113 64.1085 123.113Z" fill="#3F3D56"/>
<path d="M132.441 70.9238C136.713 70.9238 140.176 67.329 140.176 62.8946C140.176 58.4603 136.713 54.8655 132.441 54.8655C128.168 54.8655 124.705 58.4603 124.705 62.8946C124.705 67.329 128.168 70.9238 132.441 70.9238Z" fill="#3F3D56"/>
<path d="M200.773 123.113C205.045 123.113 208.508 119.518 208.508 115.084C208.508 110.649 205.045 107.055 200.773 107.055C196.5 107.055 193.037 110.649 193.037 115.084C193.037 119.518 196.5 123.113 200.773 123.113Z" fill="#3F3D56"/>
<path d="M269.104 45.4983C273.377 45.4983 276.84 41.9035 276.84 37.4692C276.84 33.0348 273.377 29.4401 269.104 29.4401C264.832 29.4401 261.369 33.0348 261.369 37.4692C261.369 41.9035 264.832 45.4983 269.104 45.4983Z" fill="#3F3D56"/>
<path d="M337.436 16.0582C341.709 16.0582 345.172 12.4635 345.172 8.02911C345.172 3.59475 341.709 0 337.436 0C333.164 0 329.701 3.59475 329.701 8.02911C329.701 12.4635 333.164 16.0582 337.436 16.0582Z" fill="#3F3D56"/>
<path d="M400.08 276.752H0.603439C0.443397 276.752 0.289909 276.686 0.176743 276.568C0.0635759 276.451 0 276.291 0 276.125C0 275.959 0.0635759 275.8 0.176743 275.682C0.289909 275.565 0.443397 275.499 0.603439 275.499H400.08C400.24 275.499 400.393 275.565 400.507 275.682C400.62 275.8 400.683 275.959 400.683 276.125C400.683 276.291 400.62 276.451 400.507 276.568C400.393 276.686 400.24 276.752 400.08 276.752Z" fill="#CBCBCB"/>
<path d="M63.6961 115.586L62.9756 114.582L132.441 60.9035L200.552 113.634L269.595 35.8291L269.718 35.7765L336.724 7.07251L337.185 8.23059L270.302 36.8813L200.702 115.313L132.44 62.4655L63.6961 115.586Z" fill="#3F3D56"/>
</svg>
